HIERARCHY
ROOT Hips
{
	OFFSET 0.000000 0.000000 0.000000 
	CHANNELS 6 Xposition Yposition Zposition Zrotation Xrotation Yrotation
	JOINT Spine
	{
		OFFSET -0.000000 8.061080 0.000000 
		CHANNELS 3 Zrotation Xrotation Yrotation
		JOINT Spine1
		{
			OFFSET -0.000000 20.532677 0.000000 
			CHANNELS 3 Zrotation Xrotation Yrotation
			JOINT Neck
			{
				OFFSET -0.000000 22.498795 0.000000 
				CHANNELS 3 Zrotation Xrotation Yrotation
				JOINT Head
				{
					OFFSET -0.000000 15.237408 1.966117 
					CHANNELS 3 Zrotation Xrotation Yrotation
					End Site
					{
						OFFSET -0.000000 19.661171 0.000000 
					}
				}
			}
			JOINT LeftShoulder
			{
				OFFSET 3.894675 16.042269 -0.398189 
				CHANNELS 3 Zrotation Xrotation Yrotation
				JOINT LeftArm
				{
					OFFSET 19.709621 0.000000 0.000000 
					CHANNELS 3 Zrotation Xrotation Yrotation
					JOINT LeftForeArm
					{
						OFFSET 25.566900 0.000000 0.000000 
						CHANNELS 3 Zrotation Xrotation Yrotation
						JOINT LeftHand
						{
							OFFSET 25.401896 0.000000 0.000000 
							CHANNELS 3 Zrotation Xrotation Yrotation
							End Site
							{
								OFFSET 14.745877 0.000000 0.000000 
							}
						}
					}
				}
			}
			JOINT RightShoulder
			{
				OFFSET -3.930777 16.042269 -0.398189 
				CHANNELS 3 Zrotation Xrotation Yrotation
				JOINT RightArm
				{
					OFFSET -19.709621 0.000000 0.000000 
					CHANNELS 3 Zrotation Xrotation Yrotation
					JOINT RightForeArm
					{
						OFFSET -25.566900 0.000000 0.000000 
						CHANNELS 3 Zrotation Xrotation Yrotation
						JOINT RightHand
						{
							OFFSET -25.401896 0.000000 0.000000 
							CHANNELS 3 Zrotation Xrotation Yrotation
							End Site
							{
								OFFSET -14.745877 0.000000 0.000000 
							}
						}
					}
				}
			}
		}
	}
	JOINT LeftUpLeg
	{
		OFFSET 9.830585 0.000000 0.000000 
		CHANNELS 3 Zrotation Xrotation Yrotation
		JOINT LeftLeg
		{
			OFFSET -0.000000 -46.474842 0.000000 
			CHANNELS 3 Zrotation Xrotation Yrotation
			JOINT LeftFoot
			{
				OFFSET -0.000000 -30.290520 0.000000 
				CHANNELS 3 Zrotation Xrotation Yrotation
				JOINT LeftToeBase
				{
					OFFSET -0.000000 -6.389880 14.745877 
					CHANNELS 3 Zrotation Xrotation Yrotation
					End Site
					{
						OFFSET -0.000000 0.000000 3.932234 
					}
				}
			}
		}
	}
	JOINT RightUpLeg
	{
		OFFSET -9.830585 0.000000 0.000000 
		CHANNELS 3 Zrotation Xrotation Yrotation
		JOINT RightLeg
		{
			OFFSET -0.000000 -46.474842 0.000000 
			CHANNELS 3 Zrotation Xrotation Yrotation
			JOINT RightFoot
			{
				OFFSET -0.000000 -30.290520 0.000000 
				CHANNELS 3 Zrotation Xrotation Yrotation
				JOINT RightToeBase
				{
					OFFSET -0.000000 -6.389880 14.745877 
					CHANNELS 3 Zrotation Xrotation Yrotation
					End Site
					{
						OFFSET -0.000000 0.000000 3.932234 
					}
				}
			}
		}
	}
}
MOTION
Frames: 14
Frame Time: 0.010000
0.000000 85.590057 0.000000 -3.055892 5.863802 4.420087 2.043467 -6.543267 -0.367354 1.095901 -4.041123 -0.125380 3.240575 8.725746 0.611166 0.665087 10.665263 1.165895 2.206151 8.373892 -2.258618 -67.625496 29.858616 -25.651749 -14.502997 1.523681 -4.346079 3.761551 1.251137 8.530390 -8.003667 9.059025 -9.811127 46.312202 58.527088 48.816696 5.735865 -10.181150 11.132908 1.589653 -10.550985 13.169774 5.898247 2.788005 7.614717 2.545767 -8.091584 4.510666 -2.532106 4.409476 2.506287 0.000000 0.000000 0.000000 -6.794345 -6.575075 5.243541 8.891860 3.551383 -15.797778 -7.494927 3.939609 -6.517251 0.000000 0.000000 0.000000 
0.003579 85.582596 0.005887 -3.081795 5.856730 4.410094 2.055461 -6.530771 -0.391152 1.174798 -4.061437 -0.130247 3.160283 8.809525 0.674097 0.627161 10.382004 1.226207 2.118923 8.198082 -2.290867 -67.737907 29.969847 -25.362690 -14.381773 1.248965 -4.170595 3.645014 0.970881 7.791297 -8.076942 9.060738 -9.733336 46.358986 58.543488 48.770687 5.724755 -10.197619 11.112467 1.560999 -10.568583 13.171527 6.077083 3.040511 7.634441 2.865948 -7.788177 4.558237 -1.867678 3.145148 0.522512 0.000000 0.000000 0.000000 -6.772968 -6.566784 5.253333 8.899208 3.546542 -15.799260 -7.468561 3.932988 -6.532130 0.000000 0.000000 0.000000 
0.000011 85.589249 -0.002776 -3.057967 5.874708 4.416636 2.059141 -6.555894 -0.355873 1.081002 -4.016615 -0.122415 3.279757 8.823466 0.672047 0.545560 10.085812 1.268826 2.216186 8.381720 -2.280572 -67.628792 29.830828 -25.653532 -14.507618 1.530931 -4.374743 3.750115 1.254005 8.539939 -7.999583 9.066178 -9.801570 46.279366 58.540886 48.850632 5.724871 -10.208928 11.109259 1.557655 -10.580027 13.177314 5.897939 2.775046 7.624425 2.556452 -8.090628 4.494340 -2.540111 4.403193 2.488607 0.000000 0.000000 0.000000 -6.796458 -6.588588 5.254564 8.900228 3.548904 -15.802452 -7.502275 3.942553 -6.529283 0.000000 0.000000 0.000000 
0.002871 85.582535 0.004186 -3.079290 5.863248 4.401556 2.065288 -6.533783 -0.381308 1.164930 -4.040054 -0.127926 3.195371 8.889105 0.743529 0.496158 9.802722 1.338465 2.125135 8.173451 -2.316679 -67.762215 29.984926 -25.326609 -14.269847 1.216422 -4.200304 5.364874 1.037610 7.398285 -8.078910 9.073090 -9.718233 46.353535 58.541046 48.778637 5.723218 -10.223627 11.106026 1.487549 -10.602257 13.184994 6.075062 3.037565 7.642231 2.872746 -7.773422 4.574051 -1.848374 3.103432 0.476974 0.000000 0.000000 0.000000 -6.772340 -6.576272 5.246098 8.896955 3.552448 -15.814512 -7.548601 3.925229 -6.447414 0.000000 0.000000 0.000000 
0.000335 85.592949 -0.011774 -3.067105 5.881558 4.390942 2.090392 -6.559365 -0.330585 1.053755 -3.978848 -0.115858 3.354868 8.913433 0.694708 0.351162 9.481739 1.354242 2.219105 8.360326 -2.300467 -67.626892 29.824234 -25.653322 -14.505462 1.519072 -4.369947 3.784477 1.245000 8.526799 -7.979286 9.119225 -9.841401 46.095371 58.512402 49.062172 5.781119 -10.233409 11.071593 1.577738 -10.605576 13.186571 5.901020 2.773750 7.545741 2.573226 -8.117805 4.615688 -2.514536 4.447562 2.476235 0.000000 0.000000 0.000000 -6.768616 -6.478636 5.972603 8.904621 3.237988 -15.150305 -7.486105 4.069100 -7.762027 0.000000 0.000000 0.000000 
0.002957 85.582176 0.005241 -3.075727 5.865789 4.389509 2.085647 -6.533585 -0.362859 1.138235 -4.020531 -0.123284 3.253249 8.934741 0.806256 0.324240 9.269635 1.454850 2.129256 8.185638 -2.325474 -67.768555 29.911243 -25.319748 -14.296566 1.257490 -4.217433 5.365145 1.076657 7.422667 -8.073261 9.081079 -9.705416 46.374371 58.536407 48.753784 5.727741 -10.250118 11.095837 1.513427 -10.625378 13.209211 6.067760 3.045563 7.562580 2.884254 -7.802407 4.634513 -1.870145 3.141360 0.529668 0.000000 0.000000 0.000000 -6.775509 -6.578925 5.249602 8.895720 3.545548 -15.797217 -7.495982 3.933734 -6.510887 0.000000 0.000000 0.000000 
-0.001146 85.589539 -0.000619 -3.050054 5.873286 4.392569 2.098381 -6.539767 -0.327930 1.034191 -3.990816 -0.115703 3.354566 8.923220 0.819962 0.248262 9.019293 1.506478 2.209953 8.365141 -2.300194 -67.614609 29.828711 -25.628603 -14.518040 1.524814 -4.387675 3.750853 1.245517 8.527671 -7.998265 9.105445 -9.767245 46.300415 58.515556 48.835457 5.747948 -10.265051 11.093094 1.539477 -10.639072 13.213146 6.038373 3.002404 7.649918 2.846588 -7.786193 4.542313 -1.888767 3.223783 0.631487 0.000000 0.000000 0.000000 -6.798228 -6.590055 5.244383 8.891067 3.551722 -15.793830 -7.537725 3.943337 -6.468019 0.000000 0.000000 0.000000 
0.004380 85.581825 0.005122 -3.074434 5.869365 4.385978 2.113842 -6.522676 -0.350107 1.107237 -4.015917 -0.120491 3.235576 8.932633 0.915801 0.269312 8.814650 1.576609 2.128896 8.172166 -2.342472 -67.765045 29.927443 -25.302076 -14.385158 1.261213 -4.208474 3.621506 0.978049 7.836665 -8.075838 9.108184 -9.694510 46.349442 58.535847 48.776535 5.743040 -10.276410 11.101951 1.506206 -10.654239 13.208718 6.050400 3.006199 7.647701 2.830683 -7.814034 4.532662 -1.907084 3.255984 0.741416 0.000000 0.000000 0.000000 -6.781964 -6.581509 5.247711 8.906577 3.545339 -15.798211 -7.543623 3.931944 -6.464348 0.000000 0.000000 0.000000 
0.005624 85.586609 -0.003690 -3.087637 5.888187 4.372397 2.138769 -6.553004 -0.328691 1.088193 -3.981290 -0.115021 3.243734 8.966923 1.013903 0.269438 8.486567 1.681430 2.134919 8.156115 -2.380531 -67.788673 29.880621 -25.281864 -14.291992 1.266503 -4.209840 5.332065 1.086553 7.464497 -8.050990 9.155457 -9.726718 46.252125 58.471539 48.887192 5.790882 -10.240347 11.087553 1.573713 -10.614600 13.193503 6.048505 2.970224 7.662203 2.818578 -7.835989 4.550925 -1.929141 3.340583 0.824423 0.000000 0.000000 0.000000 -6.754916 -6.473606 5.966712 8.910482 3.213302 -15.185612 -7.522990 4.076493 -7.672645 0.000000 0.000000 0.000000 
0.004420 85.593910 -0.009512 -3.072506 5.899511 4.370970 2.242526 -6.587395 -0.305988 0.850292 -3.934737 -0.118317 3.427109 8.822304 1.023638 0.097491 8.513868 1.760630 2.276391 8.140981 -2.417751 -67.794945 29.856186 -25.278307 -14.414578 1.353726 -4.171693 3.664511 1.075874 7.797576 -7.949471 9.051322 -9.654413 46.444424 58.560036 48.659412 5.715006 -10.287358 11.110867 1.479928 -10.666549 13.160069 6.025609 2.932671 7.666433 2.795790 -7.833524 4.524055 -1.949462 3.424754 0.949603 0.000000 0.000000 0.000000 -6.779524 -6.622745 5.270422 8.910955 3.552140 -15.851534 -7.672288 3.949297 -6.331942 0.000000 0.000000 0.000000 
0.000350 85.590530 0.001987 -3.058011 5.892935 4.395900 2.152360 -6.561028 -0.299486 0.974345 -3.964437 -0.109642 3.414617 8.951632 0.974294 -0.009546 8.157517 1.732468 2.238941 8.400964 -2.324881 -67.626335 29.771616 -25.671452 -14.528320 1.551214 -4.332317 3.758012 1.279886 8.549110 -8.002111 9.131028 -9.727540 46.334663 58.504005 48.782928 5.770665 -10.236908 11.101993 1.511895 -10.617102 13.184690 6.009303 2.929688 7.638666 2.776531 -7.849694 4.533727 -1.975514 3.488242 1.034785 0.000000 0.000000 0.000000 -6.797109 -6.595657 5.230104 8.898095 3.528995 -15.775410 -7.591880 3.963029 -6.430615 0.000000 0.000000 0.000000 
0.003188 85.583496 0.011317 -3.085430 5.879216 4.386822 2.168979 -6.556981 -0.320210 1.043692 -3.972865 -0.114567 3.366671 8.812260 1.103603 -0.091562 8.247168 1.868109 2.160308 8.204821 -2.388168 -67.773872 29.875002 -25.335806 -14.301059 1.257539 -4.164901 5.335287 1.084335 7.490077 -8.085310 9.129135 -9.627805 46.425030 58.516777 48.692039 5.755864 -10.231701 11.094472 1.493486 -10.612144 13.188989 6.025677 2.946241 7.646343 2.768190 -7.875560 4.530824 -2.004096 3.515481 1.124997 0.000000 0.000000 0.000000 -6.772471 -6.575367 5.242286 8.904299 3.519331 -15.772118 -7.554921 3.949978 -6.462554 0.000000 0.000000 0.000000 
0.000286 85.590988 0.008118 -3.062612 5.888297 4.400883 2.230347 -6.568666 -0.310224 0.845717 -3.937643 -0.119406 3.519425 8.759014 1.126895 -0.176004 8.104602 1.939391 2.289743 8.213950 -2.360262 -67.772667 29.829840 -25.389591 -14.432942 1.383543 -4.120388 3.677127 1.113667 7.837543 -7.945131 9.112061 -9.676629 46.318890 58.522766 48.779392 5.777031 -10.227279 11.080986 1.537936 -10.604071 13.186013 5.998636 2.909199 7.630454 2.747300 -7.868443 4.513190 -2.026674 3.597997 1.238103 0.000000 0.000000 0.000000 -6.793800 -6.582723 5.229393 8.901403 3.518314 -15.770029 -7.562652 3.962691 -6.467210 0.000000 0.000000 0.000000 
0.007575 85.587372 0.014173 -3.101447 5.878985 4.389314 2.213227 -6.517497 -0.322817 1.003459 -4.069736 -0.116448 3.369388 8.939764 1.219692 -0.157588 7.837106 2.005011 2.154301 8.274513 -2.380704 -67.797745 29.827728 -25.314224 -14.287340 1.287247 -4.149797 5.307694 1.115256 7.502863 -8.029182 9.237405 -9.586209 46.400768 58.439106 48.662090 5.818247 -10.229044 11.132258 1.417800 -10.626564 13.141057 6.019742 2.920128 7.641760 2.748757 -7.895779 4.520626 -2.056410 3.627582 1.313147 0.000000 0.000000 0.000000 -6.729826 -6.516113 5.236360 8.884645 3.516506 -15.063265 -7.890209 3.910669 -6.830855 0.000000 0.000000 0.000000 
